<svg xmlns="http://www.w3.org/2000/svg" version="1.1" xmlns:xlink="http://www.w3.org/1999/xlink" xmlns:svgjs="http://svgjs.dev/svgjs" width="1000" height="1000" viewBox="0 0 1000 1000"><g transform="matrix(1,0,0,1,0,0)"><svg viewBox="0 0 280 280" data-background-color="#ffffff" preserveAspectRatio="xMidYMid meet" height="1000" width="1000" xmlns="http://www.w3.org/2000/svg" xmlns:xlink="http://www.w3.org/1999/xlink"><g id="tight-bounds" transform="matrix(1,0,0,1,0,0)"><svg viewBox="0 0 280 280" height="280" width="280"><g><svg viewBox="0 0 280 280" height="280" width="280"><g><svg viewBox="0 0 280 280" height="280" width="280"><g id="textblocktransform"><svg viewBox="0 0 280 280" height="280" width="280" id="textblock"><g><svg viewBox="0 0 280 280" height="280" width="280"><g transform="matrix(1,0,0,1,57.50420886156945,57.50420886156945)"><svg viewBox="0 0 164.9915822768611 164.9915822768611" height="164.9915822768611" width="164.9915822768611"><g><circle r="82" cx="82.49579113843055" cy="82.49579113843055" fill="#a62a6c" data-fill-palette-color="accent"></circle><svg xmlns="http://www.w3.org/2000/svg" xmlns:xlink="http://www.w3.org/1999/xlink" version="1.1" x="24.748737341529164" y="24.74873734152917" viewBox="29.46099853515625 26.73800277709961 46.553306579589844 46.20096206665039" enable-background="new 0 0 100 100" xml:space="preserve" height="115.49410759380275" width="115.49410759380275" class="icon-o-0" data-fill-palette-color="quaternary" id="o-0"><g fill="#ffffff" data-fill-palette-color="quaternary"><g fill="#ffffff" data-fill-palette-color="quaternary"><g fill="#ffffff" data-fill-palette-color="quaternary"><g fill="#ffffff" data-fill-palette-color="quaternary"><path d="M69.902 72.704L58.967 61.769c-2.997 1.961-6.579 3.111-10.444 3.111-10.539 0-19.062-8.542-19.062-19.081 0-10.519 8.522-19.061 19.062-19.061 10.521 0 19.06 8.542 19.06 19.061 0 3.679-1.036 7.107-2.828 10.011l11.013 11.011c0.583 0.567 0.094 1.981-1.076 3.148l-1.64 1.644C71.882 72.78 70.468 73.269 69.902 72.704zM61.249 45.799c0-7.033-5.695-12.727-12.727-12.727-7.033 0-12.745 5.694-12.745 12.727 0 7.033 5.712 12.745 12.745 12.745C55.554 58.544 61.249 52.833 61.249 45.799z" fill="#ffffff" data-fill-palette-color="quaternary"></path></g></g></g></g></svg></g></svg></g><path d="M44.497 192.913l2.484 6.374-26.383 10.282-2.159-5.541 18.409-7.175-11.896-2.854-1.086-2.785 6.802-10.024-18.343 7.149-2.16-5.541 26.383-10.282 2.469 6.336-7.593 11.058zM34.619 229.551c-1.92-2.422-3.043-4.873-3.368-7.351-0.322-2.473 0.052-4.826 1.12-7.058 1.078-2.231 2.719-4.22 4.924-5.967v0c2.168-1.719 4.456-2.844 6.864-3.376 2.412-0.527 4.797-0.352 7.155 0.524 2.367 0.877 4.503 2.516 6.406 4.918v0c1.887 2.381 2.985 4.821 3.295 7.321 0.314 2.496-0.065 4.862-1.14 7.098-1.074 2.236-2.684 4.205-4.832 5.908v0c-2.205 1.747-4.518 2.888-6.94 3.423-2.417 0.531-4.793 0.357-7.127-0.521-2.338-0.883-4.457-2.523-6.357-4.919zM38.572 226.418c1.065 1.343 2.312 2.235 3.74 2.673 1.433 0.444 2.927 0.454 4.484 0.031 1.557-0.423 3.077-1.222 4.56-2.398v0c1.421-1.126 2.496-2.392 3.224-3.797 0.733-1.409 1.044-2.854 0.933-4.337-0.115-1.488-0.697-2.893-1.745-4.216v0c-1.102-1.39-2.362-2.309-3.78-2.756-1.418-0.447-2.896-0.458-4.435-0.032-1.538 0.425-3.031 1.211-4.478 2.358v0c-2.262 1.793-3.655 3.801-4.181 6.025-0.522 2.229 0.037 4.379 1.678 6.449zM83.83 235.289l4.937 3.627-25.095 17.117-5.961-4.38 8.814-29.08 4.936 3.627-7.05 22.59zM79.436 265.605l12.659-25.328 5.32 2.658-12.659 25.328zM101.708 268.976l12.004 3.659-1.404 4.606-17.693-5.393 8.255-27.085 17.513 5.338-1.404 4.606-11.824-3.604-1.994 6.543 10.038 3.06-1.404 4.606-10.038-3.06zM142.687 279.999c-3.859 0.025-7.275-0.651-10.25-2.027v0l-0.035-5.411c3.128 1.621 6.546 2.419 10.252 2.395v0c1.595-0.01 2.771-0.316 3.528-0.917 0.751-0.607 1.123-1.394 1.117-2.36v0c-0.006-0.946-0.352-1.656-1.037-2.128-0.685-0.465-1.826-0.918-3.424-1.358v0l-2.546-0.688c-1.472-0.414-2.753-0.899-3.842-1.454-1.083-0.556-2.001-1.377-2.757-2.464-0.755-1.094-1.138-2.511-1.15-4.252v0c-0.019-2.866 0.831-5.046 2.549-6.54 1.724-1.494 4.155-2.251 7.292-2.271v0c1.866-0.012 3.516 0.146 4.948 0.474 1.438 0.328 2.895 0.835 4.368 1.52v0l0.035 5.232c-2.776-1.478-5.882-2.205-9.318-2.183v0c-1.443 0.009-2.47 0.291-3.082 0.844-0.605 0.553-0.905 1.34-0.898 2.359v0c0.033 0.973 0.342 1.676 0.927 2.109 0.592 0.433 1.687 0.866 3.285 1.299v0l2.576 0.698c1.571 0.413 2.922 0.914 4.051 1.502 1.122 0.588 2.055 1.446 2.797 2.573 0.742 1.134 1.119 2.607 1.131 4.421v0c-0.009 2.668-0.942 4.765-2.798 6.293-1.857 1.535-4.429 2.313-7.719 2.334zM167.381 271.706l12.265-2.658 1.02 4.706-18.077 3.917-5.996-27.673 17.893-3.877 1.019 4.706-12.08 2.617 1.448 6.686 10.257-2.222 1.019 4.706-10.256 2.222zM207.607 261.098l-4.843-4.726-10.01 4.955 0.821 6.717-5.356 2.651-3.672-30.154 6.629-3.281 21.788 21.186zM192.056 255.956l6.825-3.378-8.258-8.087zM232.474 242.815l-11.716-4.136-2.866 2.393 6.846 8.201-4.566 3.811-18.145-21.738 8.491-7.087c5.335-4.454 9.895-4.414 13.678 0.118v0c2.774 3.323 3.047 6.661 0.818 10.012v0l12.567 4.163zM209.825 231.407l4.835 5.793 3.925-3.277c2.256-1.883 2.587-3.78 0.992-5.691v0c-0.848-1.016-1.744-1.527-2.688-1.532-0.944-0.005-1.99 0.472-3.139 1.43v0zM251.61 221.173c-2.875 3.908-6.099 6.072-9.671 6.493-3.568 0.415-7.186-0.726-10.854-3.425v0c-2.25-1.655-3.946-3.589-5.087-5.801-1.136-2.208-1.578-4.579-1.324-7.113 0.257-2.539 1.321-5.08 3.192-7.622v0c0.784-1.066 1.568-1.953 2.35-2.659 0.782-0.706 1.731-1.393 2.847-2.06v0l4.182 3.077c-2.082 1.098-3.817 2.591-5.205 4.478v0c-1.032 1.402-1.604 2.884-1.716 4.444-0.109 1.555 0.211 3.064 0.959 4.527 0.748 1.463 1.866 2.741 3.354 3.835v0c2.367 1.742 4.714 2.523 7.039 2.344 2.322-0.174 4.279-1.343 5.871-3.507v0c0.726-0.986 1.291-2.062 1.696-3.227 0.414-1.166 0.734-2.488 0.958-3.966v0l4.97 1.487c-0.253 1.605-0.694 3.166-1.325 4.683-0.632 1.507-1.378 2.844-2.236 4.012zM241.57 177.635l2.333-5.459 26.037 11.13-2.334 5.459-10.717-4.582-4.699 10.992 10.718 4.581-2.338 5.469-26.036-11.13 2.337-5.468 10.581 4.523 4.699-10.992z" fill="#e83d95" data-fill-palette-color="primary"></path><path d="M11.402 81.569L13.826 75.311 39.749 85.351 37.644 90.786 19.554 83.779 26.279 93.741 25.217 96.481 13.645 99.228 31.67 106.21 29.562 111.653 3.639 101.613 6.052 95.383 18.883 92.41ZM51.67 71.313C49.791 73.7 47.708 75.329 45.422 76.199 43.127 77.071 40.791 77.249 38.416 76.735 36.04 76.212 33.767 75.096 31.599 73.389V73.389C29.467 71.71 27.873 69.781 26.817 67.602 25.765 65.417 25.39 63.096 25.692 60.637 25.989 58.184 27.07 55.775 28.933 53.408V53.408C30.775 51.068 32.856 49.464 35.175 48.594 37.491 47.729 39.838 47.556 42.219 48.074 44.594 48.589 46.84 49.679 48.957 51.345V51.345C51.125 53.053 52.74 55.003 53.802 57.196 54.859 59.384 55.235 61.694 54.93 64.124 54.616 66.556 53.529 68.952 51.67 71.313ZM47.778 68.248C48.818 66.927 49.388 65.535 49.487 64.072 49.581 62.604 49.249 61.175 48.49 59.786 47.735 58.391 46.629 57.12 45.173 55.974V55.974C43.769 54.868 42.312 54.129 40.802 53.757 39.291 53.376 37.843 53.407 36.458 53.85 35.064 54.294 33.853 55.168 32.825 56.473V56.473C31.748 57.841 31.157 59.255 31.053 60.714 30.947 62.164 31.271 63.577 32.024 64.954 32.781 66.325 33.871 67.571 35.296 68.693V68.693C37.522 70.446 39.756 71.321 41.999 71.318 44.247 71.31 46.173 70.287 47.778 68.248ZM62.36 23.491L67.187 19.917 75.97 48.411 70.138 52.73 45.413 36.041 50.24 32.466 69.387 45.627ZM88.497 40.013L76.008 15.177 81.223 12.555 93.712 37.391ZM104.865 28.701L116.646 25.095 118.032 29.624 100.668 34.938 92.533 8.355 109.717 3.097 111.102 7.625 99.501 11.176 101.465 17.593 111.32 14.577 112.703 19.096 102.848 22.112ZM142.737 28.942C138.951 28.909 135.608 28.195 132.707 26.8V26.8L132.753 21.478C135.797 23.12 139.139 23.956 142.779 23.987V23.987C144.348 24.001 145.506 23.716 146.252 23.134 147.005 22.558 147.385 21.793 147.394 20.84V20.84C147.402 19.907 147.073 19.206 146.409 18.737 145.738 18.268 144.623 17.808 143.065 17.358V17.358L140.569 16.631C139.13 16.208 137.883 15.714 136.829 15.149 135.768 14.591 134.875 13.772 134.15 12.694 133.424 11.609 133.069 10.212 133.084 8.505V8.505C133.108 5.692 133.977 3.564 135.69 2.123 137.404 0.682 139.799-0.026 142.877 0.001V0.001C144.71 0.017 146.33 0.196 147.737 0.539 149.138 0.882 150.556 1.401 151.993 2.095V2.095L151.949 7.237C149.248 5.745 146.21 4.984 142.834 4.955V4.955C141.418 4.943 140.41 5.202 139.809 5.733 139.202 6.264 138.895 7.032 138.886 8.038V8.038C138.904 8.992 139.199 9.686 139.771 10.121 140.337 10.55 141.402 10.992 142.967 11.449V11.449L145.493 12.166C147.025 12.596 148.341 13.107 149.441 13.699 150.535 14.298 151.437 15.156 152.149 16.274 152.861 17.392 153.209 18.845 153.194 20.632V20.632C153.145 23.246 152.197 25.29 150.351 26.763 148.505 28.243 145.967 28.969 142.737 28.942ZM165.301 26.232L177.335 28.873 176.32 33.499 158.584 29.607 164.542 2.454 182.095 6.305 181.079 10.931 169.229 8.331 167.791 14.886 177.857 17.095 176.844 21.711 166.778 19.502ZM198.472 44.478L199.297 37.879 189.486 32.992 184.715 37.625 179.463 35.009 200.864 14.246 207.369 17.487 203.724 47.094ZM193.263 29.261L199.964 32.599 201.386 21.35ZM219.234 60.133L221.198 48.094 218.391 45.739 211.652 53.77 207.18 50.017 225.049 28.722 233.37 35.704C238.592 40.086 239.342 44.496 235.619 48.932V48.932C232.883 52.192 229.704 53.037 226.08 51.465V51.465L224.239 64.332ZM226.337 36.27L221.576 41.944 225.424 45.173C227.635 47.028 229.527 47.017 231.101 45.141V45.141C231.931 44.153 232.268 43.2 232.113 42.283 231.948 41.368 231.306 40.44 230.185 39.499V39.499ZM233.942 78.943C231.124 75.091 230.047 71.434 230.712 67.971 231.372 64.502 233.508 61.447 237.118 58.804V58.804C239.324 57.19 241.632 56.174 244.041 55.756 246.454 55.344 248.808 55.63 251.104 56.616 253.4 57.601 255.465 59.347 257.298 61.852V61.852C258.064 62.899 258.661 63.893 259.088 64.836 259.52 65.774 259.885 66.861 260.181 68.095V68.095L256.071 71.103C255.65 68.836 254.762 66.775 253.405 64.922V64.922C252.397 63.544 251.179 62.573 249.75 62.011 248.327 61.445 246.82 61.297 245.23 61.567 243.639 61.837 242.112 62.507 240.649 63.578V63.578C238.32 65.282 236.897 67.25 236.381 69.481 235.861 71.707 236.381 73.886 237.941 76.017V76.017C238.648 76.984 239.485 77.831 240.452 78.559 241.429 79.288 242.573 79.972 243.886 80.611V80.611L241.036 84.837C239.607 84.127 238.274 83.253 237.038 82.214 235.811 81.176 234.779 80.086 233.942 78.943ZM274.085 95.545L276.361 100.91 250.77 111.769 248.494 106.404 259.032 101.932 254.448 91.129 243.91 95.601 241.63 90.227 267.22 79.368 269.501 84.742 259.1 89.155 263.684 99.958Z" fill="#e83d95" data-fill-palette-color="primary"></path><path d="M11.446 143.425c0-1.792 1.453-3.245 3.245-3.244 1.792 0 3.245 1.453 3.245 3.244 0 1.792-1.453 3.245-3.245 3.245-1.792 0-3.245-1.453-3.245-3.245zM261.644 143.425c0-1.792 1.453-3.245 3.245-3.244 1.792 0 3.245 1.453 3.245 3.244 0 1.792-1.453 3.245-3.245 3.245-1.792 0-3.245-1.453-3.245-3.245z" fill="#e83d95" data-fill-palette-color="primary"></path></svg></g></svg></g></svg></g></svg></g><defs></defs></svg><rect width="280" height="280" fill="none" stroke="none" visibility="hidden"></rect></g></svg></g></svg>